<svg xmlns="http://www.w3.org/2000/svg" viewBox="0 0 125.9 24"><path d="M40.2 14.6h.8l-.3 3c-1.2.6-2.7 1-4.6 1-4.1 0-6.3-2.8-6.3-5.9 0-3.9 2.8-6.4 6.4-6.4 2.1 0 3.4.6 4.2 1.1l.1 2.6h-.8C39 8 37.9 7.3 36 7.3c-3 0-4 2.2-4 4.8 0 2.9 1.3 5.5 4.4 5.5 2.2 0 3.1-1 3.8-3m2.1-.1c0-2.7 2-4.4 4.5-4.4s4.2 1.7 4.2 4.1c0 2.7-2 4.4-4.5 4.4s-4.2-1.8-4.2-4.1m6.7.2c0-2.1-.9-3.7-2.6-3.7-1.4 0-2.1 1.2-2.1 2.9 0 2.1 1 3.7 2.6 3.7 1.4 0 2.1-1.2 2.1-2.9m9 2.4c-.6.8-1.6 1.5-2.9 1.5-1.5 0-2.5-.7-2.5-2.5V12c0-.5-.2-.7-.9-.8h-.3v-.7l2.7-.4h.5l-.1 1.6v4.1c0 1.1.6 1.5 1.4 1.5.9 0 1.6-.4 2.1-.9V12c0-.5-.2-.7-.9-.8h-.3v-.7l2.7-.4h.5l-.1 1.6v4.9c0 .5.2.7.8.7h.4v.7l-2.8.5H58v-1.4m7-4.6c.8-1.4 1.4-2.4 2.6-2.4.4 0 .6.1.8.2v1.6h-.6c-1 0-1.8.2-2.8 1.3v3.6c0 .8.4.8 1.5.9v.7H62v-.7c.7-.1 1.2-.2 1.2-.9v-5l-1.2-.6v-.4l2.5-.8h.5v2.5m4.1 5.3l-.1-2h.8c.3 1.3 1 2 2.3 2 1 0 1.7-.4 1.7-1.3 0-.7-.5-1-1.4-1.2l-1.1-.3c-1.3-.4-2.2-1-2.2-2.4 0-1.5 1.2-2.4 3-2.4 1.1 0 2 .2 2.7.7v1.9H74c-.2-1.2-.9-1.7-2-1.7-.8 0-1.3.4-1.3 1.1 0 .6.4.9 1.1 1.1l1.2.3c1.5.4 2.3 1 2.3 2.6s-1.3 2.6-3.2 2.6c-1.3-.2-2.3-.6-3-1m14.8-4.5v.5H78c0 2 .9 3.3 2.9 3.3 1.2 0 2-.6 2.5-1.2l.5.2c-.4 1.2-1.4 2.5-3.6 2.5-2.5 0-4-1.7-4-4 0-2.7 1.8-4.5 4.2-4.5 2.2-.1 3.4 1.4 3.4 3.2m-5.8-.3H82c0-1.1-.6-2-1.9-2-1.2 0-1.9.8-2 2m19.6-.2h-6.4v3.7c0 1 .5 1.2 1.7 1.2v.8h-5.4v-.8c1.2 0 1.7-.2 1.7-1.2V8.4c0-1-.5-1.2-1.7-1.2v-.8H93v.8c-1.2 0-1.7.2-1.7 1.2v3.4h6.4V8.4c0-1-.5-1.2-1.7-1.2v-.8h5.4v.8c-1.2 0-1.7.2-1.7 1.2v8.1c0 1 .5 1.2 1.7 1.2v.8H96v-.8c1.2 0 1.7-.2 1.7-1.2v-3.7m11.9.5v.5h-5.9c0 2 .9 3.3 2.9 3.3 1.2 0 2-.6 2.5-1.2l.5.2c-.4 1.2-1.4 2.5-3.6 2.5-2.5 0-4-1.7-4-4 0-2.7 1.8-4.5 4.2-4.5 2.2-.1 3.4 1.4 3.4 3.2m-5.8-.3h3.9c0-1.1-.6-2-1.9-2-1.2 0-1.9.8-2 2m9.7-.5c.8-1.4 1.4-2.4 2.6-2.4.4 0 .6.1.8.2v1.6h-.6c-1 0-1.8.2-2.8 1.3v3.6c0 .8.4.8 1.5.9v.7h-4.5v-.7c.7-.1 1.2-.2 1.2-.9v-5l-1.1-.6v-.4l2.4-.8h.6l-.1 2.5m3.7 2c0-2.7 2-4.4 4.5-4.4s4.2 1.7 4.2 4.1c0 2.7-2 4.4-4.5 4.4s-4.2-1.8-4.2-4.1m6.7.2c0-2.1-.9-3.7-2.6-3.7-1.4 0-2.1 1.2-2.1 2.9 0 2.1 1 3.7 2.6 3.7 1.4 0 2.1-1.2 2.1-2.9M11.9 3.4L0 0v19.8L11.9 24l11.9-4.2V0L11.9 3.4m4.2 15l-4.3-2.7-4.3 2.7 1.2-4.9L5 10.3l5-.3 1.9-4.7 1.9 4.7 5 .3-3.9 3.2 1.2 4.9" fill="#fff"/></svg>