<svg width="64" height="64" xmlns="http://www.w3.org/2000/svg"><g fill="none" fill-rule="evenodd"><path fill="#FFF" d="M0 0h64v64H0z"/><g transform="translate(2)" fill-rule="nonzero"><path d="M54.906716 62.782772l-50.776864.383838c-.357025.005861-.70152-.131743-.956123-.382104-.254604-.25036-.397978-.592493-.397927-.94957L2.482424 24.68884c0-.747821.60623-1.35405 1.35405-1.35405l14.352927-.11296c.468049-.006201.905039.233715 1.150942.632012l1.512023 2.43729c.24356.403634.679525.651535 1.150942.654457l32.632598-.248242c.357025-.006052.701519.131552.956123.381912.254603.25036.397978.592494.397926.94957l.248434 33.399893c.005861.357025-.131743.701519-.382104.956123-.25036.254603-.592493.397978-.94957.397927z" fill="#2A3487"/><path fill="#DDE0E3" d="M5.438766 1.421752h42.201216V55.38966H5.438766z"/><path fill="#FFF" d="M7.447273 3.452827h42.201216v53.967908H7.447273z"/><path fill="#DDE0E3" d="M14.984817 22.544928h21.078041v1.216388H14.984817z"/><path fill="#F3F4F6" d="M28.773556 31.459088h13.382525v1.216388H28.773556zM28.773556 40.373249h13.382525v1.216388H28.773556zM14.984817 44.931883h27.171264v1.135145H14.984817zM14.984817 49.309977h22.951142v1.216388H14.984817z"/><path fill="#DDE0E3" d="M14.984817 13.6082h27.171264v1.135145H14.984817zM14.984817 18.144266h27.171264v1.135145H14.984817z"/><path fill="#F3F4F6" d="M14.984817 31.459088h9.72659v10.139576h-9.72659zM28.773556 35.927452h13.382525v1.216388H28.773556z"/><path d="M11.012938 7.763218c-.568299-.011968-1.026137-.469806-1.038105-1.038104v-4.06215h.45135v4.06215c.012132.31521.271311.56442.586755.564187.153502.006145.302872-.050572.41361-.157051.110739-.106479.173267-.253511.173144-.407136V1.44432c.058732-.386252-.114493-.771047-.442592-.983157-.3281-.21211-.750087-.21211-1.078187 0-.3281.21211-.501324.596905-.442593.983157h-.473917C9.162403.646644 9.809047 0 10.606723 0c.797675 0 1.44432.646644 1.44432 1.44432v5.280794c0 .275322-.109372.539368-.304054.73405-.194683.194683-.458729.304054-.734051.304054z" fill="#D76CA9"/><path d="M53.575233 61.383587l-.248242-30.511254c0-.74782-.606229-1.35405-1.35405-1.35405l-31.25598.248243c-.492107.008477-.95006-.250742-1.196078-.677025l-1.512022-2.662964c-.234867-.42631-.686888-.68709-1.17351-.677306l-15.278194.113118c-.357076-.00005-.69921.143324-.94957.397927-.25036.254604-.387964.599098-.382104.956123l.271002 34.641105c-.000051.357076.143323.69921.397927.94957.254603.25036.599098.387965.956123.382104l53.05618-.406406c-.746188-.036148-1.332357-.652122-1.331482-1.399185z" fill="#394C9F"/><path fill="#DDE0E3" d="M49.671057 23.470195l-14.014415-2.866072-4.017014 19.475748 18.031429 3.70107z"/><path fill="#FFF" d="M36.51117 21.84871l24.427749 5.014296-3.997824 19.47588-24.427748-5.014297z"/><path fill="#F3CBE0" d="M37.897403 24.143864l20.890699 4.288244-2.688208 13.095926-20.890699-4.288244z"/><path fill="#FFF" d="M43.893778 28.322206l-6.318899 6.950789 9.207538 2.008507z"/><path fill="#FFF" d="M47.730252 32.15868l-4.039581 4.445797 5.890116 1.286347z"/><circle fill="#FFF" cx="53.169018" cy="31.662196" r="2.279317"/><path fill="#D44497" d="M37.094401 38.964236l16.270428 3.339839-.201078.979575-16.270428-3.339839zM37.999676 40.34819l12.622846 2.591098-.201078.979575-12.622846-2.591098z"/></g></g></svg>