<svg width="64" height="64" xmlns="http://www.w3.org/2000/svg" xmlns:xlink="http://www.w3.org/1999/xlink"><defs><rect id="a" y="15.156677" width="56.933712" height="28.851543" rx="14.425772"/></defs><g fill="none" fill-rule="evenodd"><path fill="#FFF" d="M0 0h64v64H0z"/><g transform="translate(0 8)"><use fill="#F0F1F2" xlink:href="#a"/><path d="M63.950404 5.056328v10.902366c-.000696.921896-.725781 1.66906-1.620433 1.669779h-7.921553l-3.686705 2.993367c-.04228.03347-.099418.039056-.147051.014376-.047634-.02468-.077359-.075274-.0765-.130206v-2.877537h-5.331136c-.894651-.000718-1.619736-.747883-1.620432-1.66978V5.056329c0-.922404.725288-1.670362 1.620432-1.67108h17.162945c.895145.000718 1.620433.748676 1.620433 1.67108z" fill="#D34698" fill-rule="nonzero"/><text font-family="HaasGrotText-75Bold, Haas Grot Text" font-size="8.616994" font-weight="bold" fill="#FFF"><tspan x="50.685158" y="13.154996">A</tspan></text><path d="M13.858783 21.524899s4.953151-2.107647 5.223323-2.421551l5.35841.089687 1.756117 1.973115-1.891203 9.148082L13.858783 21.5249z" fill="#FFF" fill-rule="nonzero"/><path d="M47.9905 20.000218h.090058c-.270172 1.928273-.630401 3.856545-1.080688 5.739973-.450286 1.883429-1.395888 6.143565-3.106977 8.296055-.93725 1.206867-2.4409 1.836484-3.962521 1.659211-3.377149-.403592-7.65487-2.869986-9.861275-5.20185a4.645601 4.645601 0 0 0 .090058-.672654c.006385-.820878-.115136-1.637775-.36023-2.42155h.090058c1.170745-.941715 2.206404-3.318423 2.206404-3.318423-.247189-.291016-.518299-.561011-.810516-.807183 1.485945 1.076245 3.512235 2.869986 4.863094 4.080762 1.35086 1.210775 2.65669 2.91483 4.052579 2.511238h.045029l.135086.13453.945601.672654-.945601-.717497c.045028-.089687.045028-.13453.090057-.179374 1.395888-.717497 2.02629-3.632327 2.611662-4.887946.585372-1.255619 1.66606-3.766857 2.34149-5.739973.405257.179374 1.62103.852027 2.566633.852027z" fill="#3348AB" fill-rule="nonzero"/><path d="M45.153695 18.968817l.270172.13453c-.67543 1.973116-1.485945 3.856545-2.34149 5.739974-.855544 1.883428-1.215773 4.170449-2.611661 4.887945 1.125716-3.094204 4.68298-10.762449 4.68298-10.762449z" fill="#3348AB" fill-rule="nonzero"/><path fill="#001A7D" fill-rule="nonzero" d="M41.32626 30.628137l-.945601-.672653z"/><path d="M40.470716 29.731266c-.045029.044844-.045029.089687-.090058.179374l-.090057-.089687c.04252-.056459.10925-.089687.180115-.089687z" fill="#D2F0F9" fill-rule="nonzero"/><path fill="#E6E6E6" fill-rule="nonzero" d="M40.380659 29.91064l-.135086-.13453h.045028z"/><path d="M30.924642 22.915048l9.32093 6.950749h-.045028c-1.395888.403592-1.783118-.115714-4.086132-1.861406-2.303013-1.745692-3.343596-3.699193-4.829541-4.775438l-.36023-.313905z" fill="#3348AB" fill-rule="nonzero"/><path d="M30.879613 22.870205h.045029l.360229.313905c.292217.246172.677541.45172.92473.742735 0 0-.195217 1.34116-1.04107 2.441156-.547798.71239-.966752 1.068584-1.256862 1.068584.245094.783776.253871 1.473803.247485 2.294681a4.6456 4.6456 0 0 1-.090057.672653 41.453366 41.453366 0 0 0-.720458 5.291538c0 1.031401-.36023 6.009034-.450287 6.995592h-.900573l-9.501045.269061a7.604495 7.604495 0 0 1 .3152-.807183c-1.616646-.066483-3.235285.069105-4.818065.403592-.17203-.688568-.23283-1.40003-.180115-2.107647a14.11392 14.11392 0 0 0 .135086-1.434993c.225143-4.484354-.765487-10.627919-.765487-10.627919-1.333314.847792-2.84187 1.384347-4.412808 1.569524 0 0-1.30583.403592-1.711089.89687v.134531c-.045028-3.67717 1.305831-5.246694 2.251433-6.278095 1.98126-2.107646 4.728008-3.408109 6.619212-4.17045l-.135086.134531 5.448467 6.053878.225143-.358748 1.98126 2.959674.99063-3.497797.36023.358749s1.170745-3.587483 1.035659-5.426068L24.98086 19.776c.810515.179374 3.197034.76234 5.898753 3.094204z" fill="#3348AB" fill-rule="nonzero"/><path d="M29.168524 11.928381c.396378.55656.431538 1.291879.090057 1.883429-.67543 1.165932-2.791776.941714-3.197034.672653l.135086-.13453c1.067034-1.413206 1.56493-3.172668 1.395888-4.93279.090058.313905.405258 1.479837.99063 1.928272.216972.171274.413393.366887.585373.582966z" fill="#16191B" fill-rule="nonzero"/><path d="M27.99778 42.780736v.179374h-.180115c-3.060217 1.109508-6.289422 1.685948-9.54609 1.704055-.001215-.545967.074574-1.0894.225159-1.614368l9.501045-.26906z" fill="#D2F0F9" fill-rule="nonzero"/><path d="M27.592521 9.417143c.169041 1.760122-.328854 3.519584-1.395888 4.93279l-.135086.13453c-.024868 0-.045028-.020077-.045028-.044843l.6304-2.15249.945602-2.959674v.089687z" fill="#F0DDD9" fill-rule="nonzero"/><path d="M27.592521 9.417143v-.089687l-.945601 2.959674-1.170745-.358749c.047796-.08951.029334-.199826-.045029-.26906-.270172-.448436-.99063-1.88343-1.035659-1.973117l-.3152-.26906 2.836805-2.959674c.391512.941443.619892 1.942186.67543 2.959673z" fill="#F0DDD9" fill-rule="nonzero"/><path d="M26.691948.179374c3.33212 2.242177.270172 6.278096.270172 6.278096h-.045028l-.180115-.403592h-.135086l.180115-.269061s-1.621032-3.049361-5.088238-2.466395l-.180115-.76234c.782716-.186385 1.480218-.628426 1.981261-1.25562C25.160974-.62781 26.691948.179375 26.691948.179375z" fill="#16191B" fill-rule="nonzero"/><path d="M26.917092 6.45747l-2.836805 2.959673-5.808696 6.053878a24.478679 24.478679 0 0 0-.36023-2.690612h-.135086c-.045028-.134531-.090057-.179374-.180114-.179374-.090058 0-.135086.044843-.225143.179374-.408432-.108453-.77133-.344152-1.03566-.672654-.945601-1.479836.04503-1.973115.04503-1.973115h.225142c.450287 0 .855545.672653 1.03566.986558.180114.313904.810515.672653.810515.672653l.270172-.448436-.225143-2.600925c3.011097 1.126497 6.402124-.01796 8.105157-2.735456h.135086l.180115.448436z" fill="#F0DDD9" fill-rule="nonzero"/><path d="M26.782006 5.739973l-.180115.269061c-1.703033 2.717496-5.09406 3.861953-8.105157 2.735456l.225143 2.600925-.270172.448436s-.3152-.672653-.810516-.717497c-.495315-.044843-.585372-.986558-1.035659-.986558h.04503a5.939942 5.939942 0 0 1 .045028-1.569524c.495315-3.587483 3.917492-4.887945 3.917492-4.887945.346949-.145566.709562-.250894 1.080688-.313905 3.467206-.62781 5.088238 2.421551 5.088238 2.421551z" fill="#16191B" fill-rule="nonzero"/><path d="M26.64692 12.28713l-.630401 2.15249c0 .024766.02016.044843.045028.044843-.521173.509425-1.15277.892962-1.846175 1.121089-1.152294.309493-2.368286.293968-3.512234-.044844h-.045029s1.891203 1.25562 3.557264.941714c.045028.76234.090057 1.793742.225143 2.735456l-.090058-.089687s.135086 3.811701-1.35086 5.246694c0 0-4.547893-4.035918-4.773036-4.887945a1.697318 1.697318 0 0 0 .045028-.448436 19.516405 19.516405 0 0 0 0-3.632327l5.808697-6.009034.3152.269061c.045029.134531.495315 2.242177.225143 2.735456h.090058c.309744.01354.602605-.140866.765487-.403592v-.089687l1.170745.358749z" fill="#F0DDD9" fill-rule="nonzero"/><path d="M25.431146 11.65932c.074363.069235.092825.17955.045029.269061v.089687c-.162882.262726-.455743.417133-.765487.403592h-.090058c.270172-.493279-.180114-2.600925-.225143-2.735456-.045029-.13453.765487 1.52468 1.03566 1.973116zM24.215373 16.547266c-1.66606.313905-3.557264-.941714-3.557264-.941714h.045029c1.143948.338811 2.35994.354337 3.512235.044843v.89687z" fill="#EEC4CA" fill-rule="nonzero"/><path d="M21.513653 2.511238l.180115.76234c-.371126.063012-.73374.16834-1.080688.313905 0 0-3.422177 1.300463-3.917492 4.887946l-1.35086-.269061c.060352-.360624.029398-.730544-.090057-1.076245-.67543-2.107647 2.161375-5.20185 4.32275-4.663728.483901.12939.986549.174897 1.485946.13453l.450286-.089687z" fill="#16191B" fill-rule="nonzero"/><path d="M18.811934 42.242614a7.604487 7.604487 0 0 0-.3152.807183l-6.34904.179375.67543-.224218 1.170745-.358748c1.58278-.334487 3.20142-.470075 4.818065-.403592z" fill="#3348AB" fill-rule="nonzero"/><path d="M12.147694 43.229172l6.34904-.179375c-.150585.524969-.226374 1.0684-.225144 1.614368-2.55527.037259-5.106992-.203331-7.609842-.717497.476933-.275216.973595-.515032 1.485946-.717496z" fill="#3348AB" fill-rule="nonzero"/><path d="M18.811934 46.36822c-1.912128.561906-3.910573.774602-5.898753.627809h-.090057l-.450287-.089687c-.427526-.124618-.836405-.305595-1.215773-.538123-.225144-.852027-2.470582-1.758215-.99063-2.645769l.607886.156953c2.506165.484071 4.945284.851537 7.49727.784762.0052.60901.193398 1.20252.540344 1.704054z" fill="#3348AB" fill-rule="nonzero"/><path d="M17.911361 12.780409a24.478679 24.478679 0 0 1 .36023 2.690612c-2.791777.179374-4.05258-.89687-4.637952-2.01796-.484656-1.050217-.289426-2.287486.495316-3.139047.600133-.57166 1.022218-1.30338 1.215773-2.107646l1.35086.26906a5.939942 5.939942 0 0 0-.045029 1.569525h-.270172s-.99063.493279-.045028 1.973115c.264329.328502.627226.564201 1.035659.672654a2.724883 2.724883 0 0 0-.090058.672653c-.045029.538122.090058.941714.270172.941714.180115 0 .3152-.403592.36023-.89687.007543-.246076-.038543-.490858-.135087-.717498l.135086.089688z" fill="#16191B" fill-rule="nonzero"/><path d="M17.911361 13.497905c-.045028.49328-.180114.896871-.360229.896871-.180114 0-.3152-.403592-.270172-.941714a2.724883 2.724883 0 0 1 .090058-.672653.632866.632866 0 0 0 .405257 0c.096544.22664.14263.47142.135086.717496z" fill="#E00099" fill-rule="nonzero"/><path d="M17.776275 12.780409a.632866.632866 0 0 1-.405257 0c.090057-.134531.135085-.179374.225143-.179374.090057 0 .135086.044843.180114.179374z" fill="#E00099" fill-rule="nonzero"/><path d="M12.823124 43.004954c.900573-.582966 1.125716-3.856544 1.125716-3.856544a14.113917 14.113917 0 0 1-.135086 1.434993c-.047956.692744.147386 1.380395.31469 2.054498l-1.30532.367053z" fill="#3348AB" fill-rule="nonzero"/><path d="M14.983101 31.85316c.225143-3.131802 1.870087 2.534183 1.239686 5.628387-.538008 2.588966-1.913205 3.305597-2.81429 5.792468l-3.01692.403592-.135086-.493279H9.22083c-.782074-2.543802-1.398743-5.135148-1.846174-7.757932-.250822-1.436248-.327452-3.338517-.316298-4.796282.926023-.469826 3.042735-1.295728 6.350137-2.477708.382307.136612 1.307252 3.396237 1.574605 3.700755z" fill="#3348AB" fill-rule="nonzero"/><path d="M10.526662 43.274015h1.621032c-.512351.202465-1.009014.44228-1.485946.717497h-.225143a1.921266 1.921266 0 0 0-.045029-.224218l.135086-.493279z" fill="#3348AB" fill-rule="nonzero"/><path d="M10.481634 43.991512c.225143.717496.450286 1.479836.67543 2.331864-.639985-.412443-1.141724-1.00581-1.440917-1.704055.270172-.13453.360229-.089687.360229-.044843a2.86088 2.86088 0 0 0 .090057-.313905 1.611063 1.611063 0 0 0 .180115-.403592h.090057c.045029.044844.045029.089687.045029.13453z" fill="#3348AB" fill-rule="nonzero"/><path d="M10.661748 43.946668h-.180114c0-.044843 0-.089687-.045029-.089687l.225143.089687zM10.391576 43.677607a1.921257 1.921257 0 0 1 .04503.224218h-.090058c0-.134531.045028-.179375.045028-.224218z" fill="#3348AB" fill-rule="nonzero"/><path d="M10.549177 43.677607c0 .044843-.20263.089687-.20263.179374a1.611063 1.611063 0 0 1-.180114.403592 2.86088 2.86088 0 0 1-.090057.313905c0-.044844-.090057-.089687-.36023.044843a2.191525 2.191525 0 0 1-.180114-.493279l-.135086-.448435a2.504072 2.504072 0 0 1-.180114-.538123h1.035659l.292686.538123z" fill="#3348AB" fill-rule="nonzero"/><path d="M48.710959 13.094313s.630401-.13453.495315 1.076245c.290229 1.33851.048123 2.73695-.67543 3.901388-.265836.409387-.449344.866273-.540343 1.345306a2.635715 2.635715 0 0 1-.090058.582966h-.045028c-.937182-.085927-1.836481-.410197-2.611662-.941714l.67543-1.300463s-1.080688-2.869986 2.386518-7.937306c0 0 .450287-.582966.450287.13453 0 .717497-.630402 1.569524-.630402 2.242178 0 .672653.585373.044843.585373.89687z" fill="#F0DDD9" fill-rule="nonzero"/><path d="M14.038897 36.278423s.045029 5.291538 0 5.82966a40.419647 40.419647 0 0 1 4.36778-.269061s-2.70172-.538123-3.647321-.448436c0 0-.585373-4.215292-.720459-5.112163z" fill="#3348AB" fill-rule="nonzero"/><path d="M33.491275 41.56996c.045028.044844.045028.089688.045028.179375 0 .173365-.14112.313905-.3152.313905h-.270172a5.199217 5.199217 0 0 0-1.485946.089687l1.891204-.49328.135086-.089686zM33.31116 40.942151c.17408 0 .3152.14054.3152.313905 0 .179374-.090057.313905-.270171.313905 0 .024766-.02016.044843-.045029.044843h-.045029c-.817362-.093665-1.64535-.017315-2.431547.224218l1.846175-.717497h.225143c.059832.013162.122466.00147.173449-.03238.050983-.033848.08591-.08693.096723-.146994h.135086z" fill="#F0DDD9" fill-rule="nonzero"/><path d="M30.879613 42.242614l.36023-.089687-.36023.089687zm.585372-.13453a5.199217 5.199217 0 0 1 1.485946-.089688l-1.30583.403592V42.3323c-.135087-.358749-.495316-.044844-.495316-.044844-.55308.36693-1.185907.5975-1.846175.672653-.049737.012383-.100137-.017732-.112571-.067265-.012435-.049533.017805-.099726.067542-.112109.423419-.354143.81514-.744254 1.170745-1.165932.540344-.582966 1.621032-.538122 2.296462-.538122l-1.846175.717496c.786198-.241533 1.614185-.317883 2.431547-.224217.024869 0 .045029-.020077.045029-.044844l-1.891204.582966z" fill="#F0DDD9" fill-rule="nonzero"/><path d="M33.221103 40.717933c.004182.0491-.012102.09775-.045029.134531l-.495315.179374c-.67543 0-1.756117-.044843-2.296461.538123-.355606.421677-.747327.811788-1.170745 1.165932-.049737.012383-.079977.062576-.067543.112109.012434.049532.062834.079648.112571.067265.660268-.075153 1.293095-.305724 1.846175-.672653 0 0 .36023-.313905.495315.044843v.089687c-.045028.089687-.045028.224218-.090057.269062-.045029.044843-1.846175 1.121088-1.846175 1.121088-1.04964.582883-2.327509.582883-3.377149 0l-1.395888.76234-.720458-2.242177 1.846175-.313905s3.737378-2.331863 6.889383-1.614367c.092017-.00094.179852.038212.240448.10718.060597.06897.087904.160866.074753.251568z" fill="#F0DDD9" fill-rule="nonzero"/><path d="M32.680759 41.076682l.495315-.179375c-.010812.060065-.04574.113146-.096723.146995-.050983.03385-.113617.045542-.173449.03238h-.225143z" fill="#EEC4CA" fill-rule="nonzero"/><path d="M32.95093 42.018396c.032928.03678.049212.085431.04503.13453.001431.181864-.134013.336021-.315201.358749-.024869 0-.045029-.020077-.045029-.044844h-.99063l1.30583-.403591v-.044844z" fill="#F0DDD9" fill-rule="nonzero"/><path d="M31.239842 42.152927l-.360229.089687.36023-.089687z" fill="#EEC4CA" fill-rule="nonzero"/><path d="M14.038897 42.108083s9.320931-.62781 11.527335-.358748l.495315 2.600925s-8.375329 2.7803-11.617392 2.690612l-.405258-4.932789z" fill="#3348AB" fill-rule="nonzero"/></g></g></svg>